<svg width="144" height="144" viewBox="0 0 144 144" fill="none" xmlns="http://www.w3.org/2000/svg">
<g clip-path="url(#clip0_1_2)">
<rect x="37" y="-1" width="10" height="29" fill="url(#paint0_linear_1_2)"/>
<rect x="37" y="101" width="10" height="29" fill="url(#paint1_linear_1_2)"/>
<rect x="68.4937" y="123.543" width="10.545" height="29" transform="rotate(144.275 68.4937 123.543)" fill="url(#paint2_linear_1_2)"/>
<rect x="56.8395" y="3" width="10.545" height="29" transform="rotate(40.5143 56.8395 3)" fill="url(#paint3_linear_1_2)"/>
<path d="M36.88 107V23.16H58.768C71.6533 23.16 81.5947 26.7013 88.592 33.784C95.6747 40.7813 99.216 51.1067 99.216 64.76C99.216 78.4133 95.7173 88.8667 88.72 96.12C81.7227 103.373 71.9947 107 59.536 107H36.88ZM50.32 96.12H57.872C76.2187 96.12 85.392 85.6667 85.392 64.76C85.392 44.28 76.2187 34.04 57.872 34.04H50.32V96.12Z" fill="url(#paint4_linear_1_2)"/>
</g>
<defs>
<linearGradient id="paint0_linear_1_2" x1="47" y1="13.5" x2="37" y2="13.5" gradientUnits="userSpaceOnUse">
<stop stop-color="#2A6B4C"/>
<stop offset="1" stop-color="#184566"/>
</linearGradient>
<linearGradient id="paint1_linear_1_2" x1="47" y1="115.5" x2="37" y2="115.5" gradientUnits="userSpaceOnUse">
<stop stop-color="#2A6B4C"/>
<stop offset="1" stop-color="#184566"/>
</linearGradient>
<linearGradient id="paint2_linear_1_2" x1="79.0387" y1="138.043" x2="68.4937" y2="138.043" gradientUnits="userSpaceOnUse">
<stop stop-color="#2A6B4C"/>
<stop offset="1" stop-color="#184566"/>
</linearGradient>
<linearGradient id="paint3_linear_1_2" x1="67.3845" y1="17.5" x2="56.8395" y2="17.5" gradientUnits="userSpaceOnUse">
<stop stop-color="#2A6B4C"/>
<stop offset="1" stop-color="#184566"/>
</linearGradient>
<linearGradient id="paint4_linear_1_2" x1="66" y1="-14" x2="66" y2="152" gradientUnits="userSpaceOnUse">
<stop stop-color="#2A6B4C"/>
<stop offset="1" stop-color="#184566"/>
</linearGradient>
<clipPath id="clip0_1_2">
<rect width="144" height="144" fill="white"/>
</clipPath>
</defs>
</svg>
