<svg width="216" height="208" viewBox="0 0 216 208" fill="none" xmlns="http://www.w3.org/2000/svg">
<rect x="78.8625" y="39" width="9.875" height="28.4759" fill="url(#paint0_linear_1_2)"/>
<rect x="78.8625" y="136" width="9.875" height="28.4759" fill="url(#paint1_linear_1_2)"/>
<rect width="10.3932" height="28.5311" transform="matrix(-0.813389 0.58172 -0.586075 -0.810257 111 159)" fill="url(#paint2_linear_1_2)"/>
<rect width="10.3884" height="28.5442" transform="matrix(0.762056 0.647512 -0.651761 0.758424 104 39)" fill="url(#paint3_linear_1_2)"/>
<path d="M78.88 145V61.16H100.768C113.653 61.16 123.595 64.7013 130.592 71.784C137.675 78.7813 141.216 89.1067 141.216 102.76C141.216 116.413 137.717 126.867 130.72 134.12C123.723 141.373 113.995 145 101.536 145H78.88ZM92.32 134.12H99.872C118.219 134.12 127.392 123.667 127.392 102.76C127.392 82.28 118.219 72.04 99.872 72.04H92.32V134.12Z" fill="url(#paint4_linear_1_2)"/>
<defs>
<linearGradient id="paint0_linear_1_2" x1="83.8" y1="39" x2="83.8" y2="67.4759" gradientUnits="userSpaceOnUse">
<stop offset="0.115" stop-color="#20BD4C"/>
<stop offset="0.255" stop-color="#1BAE5E"/>
<stop offset="0.495" stop-color="#169F72"/>
<stop offset="0.92" stop-color="#19A866"/>
<stop offset="1" stop-color="#159B76"/>
</linearGradient>
<linearGradient id="paint1_linear_1_2" x1="83.8" y1="136" x2="83.8" y2="164.476" gradientUnits="userSpaceOnUse">
<stop offset="0.145" stop-color="#0C8196"/>
<stop offset="0.3" stop-color="#0771A8"/>
<stop offset="0.685" stop-color="#066CA8"/>
<stop offset="0.875" stop-color="#0B7A8E"/>
</linearGradient>
<linearGradient id="paint2_linear_1_2" x1="5.19658" y1="0" x2="5.19658" y2="28.5311" gradientUnits="userSpaceOnUse">
<stop offset="0.145" stop-color="#0C8196"/>
<stop offset="0.3" stop-color="#0771A8"/>
<stop offset="0.685" stop-color="#066CA8"/>
<stop offset="0.875" stop-color="#0B7A8E"/>
</linearGradient>
<linearGradient id="paint3_linear_1_2" x1="5.1942" y1="0" x2="5.1942" y2="28.5442" gradientUnits="userSpaceOnUse">
<stop offset="0.115" stop-color="#20BD4C"/>
<stop offset="0.255" stop-color="#1BAE5E"/>
<stop offset="0.495" stop-color="#169F72"/>
<stop offset="0.92" stop-color="#19A866"/>
<stop offset="1" stop-color="#159B76"/>
</linearGradient>
<linearGradient id="paint4_linear_1_2" x1="107.5" y1="187" x2="107.5" y2="24" gradientUnits="userSpaceOnUse">
<stop stop-color="#005CC5"/>
<stop offset="0.425" stop-color="#0C8196"/>
<stop offset="1" stop-color="#20BD4C"/>
</linearGradient>
</defs>
</svg>
