<svg width="79" height="163" viewBox="0 0 79 163" fill="none" xmlns="http://www.w3.org/2000/svg">
<rect x="10.8625" y="12.7651" width="9.875" height="28.4759" fill="url(#paint0_linear_3_18)"/>
<rect x="10.8625" y="112.922" width="9.875" height="28.4759" fill="url(#paint1_linear_3_18)"/>
<rect width="10.3932" height="28.5311" transform="matrix(-0.813389 0.58172 -0.586075 -0.810257 41.9626 135.057)" fill="url(#paint2_linear_3_18)"/>
<rect width="10.3884" height="28.5442" transform="matrix(0.762056 0.647512 -0.651761 0.758424 30.454 16.6928)" fill="url(#paint3_linear_3_18)"/>
<path d="M10.88 121V37.16H32.768C45.6533 37.16 55.5947 40.7013 62.592 47.784C69.6747 54.7813 73.216 65.1067 73.216 78.76C73.216 92.4133 69.7173 102.867 62.72 110.12C55.7227 117.373 45.9947 121 33.536 121H10.88ZM24.32 110.12H31.872C50.2187 110.12 59.392 99.6667 59.392 78.76C59.392 58.28 50.2187 48.04 31.872 48.04H24.32V110.12Z" fill="url(#paint4_linear_3_18)"/>
<defs>
<linearGradient id="paint0_linear_3_18" x1="20.7375" y1="27.003" x2="10.8625" y2="27.003" gradientUnits="userSpaceOnUse">
<stop stop-color="#2A6B4C"/>
<stop offset="1" stop-color="#184566"/>
</linearGradient>
<linearGradient id="paint1_linear_3_18" x1="20.7375" y1="127.16" x2="10.8625" y2="127.16" gradientUnits="userSpaceOnUse">
<stop stop-color="#2A6B4C"/>
<stop offset="1" stop-color="#184566"/>
</linearGradient>
<linearGradient id="paint2_linear_3_18" x1="10.3932" y1="14.2656" x2="0" y2="14.2656" gradientUnits="userSpaceOnUse">
<stop stop-color="#2A6B4C"/>
<stop offset="1" stop-color="#184566"/>
</linearGradient>
<linearGradient id="paint3_linear_3_18" x1="10.3884" y1="14.2721" x2="0" y2="14.2721" gradientUnits="userSpaceOnUse">
<stop stop-color="#2A6B4C"/>
<stop offset="1" stop-color="#184566"/>
</linearGradient>
<linearGradient id="paint4_linear_3_18" x1="39.5" y1="0" x2="39.5" y2="163" gradientUnits="userSpaceOnUse">
<stop stop-color="#2A6B4C"/>
<stop offset="1" stop-color="#184566"/>
</linearGradient>
</defs>
</svg>
