<svg width="144" height="144" viewBox="0 0 144 144" fill="none" xmlns="http://www.w3.org/2000/svg">
<rect width="144" height="144" fill="#F5F5F5"/>
<g clip-path="url(#clip0_0_1)">
<rect width="144" height="144" fill="white"/>
<path d="M66 118H37.2727V24.9091H67.2727C76.303 24.9091 84.0303 26.7727 90.4545 30.5C96.8788 34.197 101.803 39.5151 105.227 46.4545C108.652 53.3636 110.364 61.6364 110.364 71.2727C110.364 80.9697 108.636 89.3182 105.182 96.3182C101.727 103.288 96.697 108.652 90.0909 112.409C83.4849 116.136 75.4545 118 66 118ZM48.5455 108H65.2727C72.9697 108 79.3485 106.515 84.4091 103.545C89.4697 100.576 93.2424 96.3485 95.7273 90.8636C98.2121 85.3788 99.4545 78.8485 99.4545 71.2727C99.4545 63.7576 98.2273 57.2879 95.7727 51.8636C93.3182 46.4091 89.6515 42.2273 84.7727 39.3182C79.8939 36.3788 73.8182 34.9091 66.5455 34.9091H48.5455V108Z" fill="url(#paint0_linear_0_1)"/>
<rect x="38" y="3" width="4" height="29" fill="url(#paint1_linear_0_1)"/>
<rect x="50.0081" y="3.42218" width="4" height="29" transform="rotate(23.7455 50.0081 3.42218)" fill="url(#paint2_linear_0_1)"/>
</g>
<defs>
<linearGradient id="paint0_linear_0_1" x1="72" y1="-6" x2="72" y2="149" gradientUnits="userSpaceOnUse">
<stop stop-color="#2A6B4C"/>
<stop offset="1" stop-color="#184566"/>
</linearGradient>
<linearGradient id="paint1_linear_0_1" x1="42" y1="17.5" x2="38" y2="17.5" gradientUnits="userSpaceOnUse">
<stop stop-color="#2A6B4C"/>
<stop offset="1" stop-color="#184566"/>
</linearGradient>
<linearGradient id="paint2_linear_0_1" x1="54.0081" y1="17.9222" x2="50.0081" y2="17.9222" gradientUnits="userSpaceOnUse">
<stop stop-color="#2A6B4C"/>
<stop offset="1" stop-color="#184566"/>
</linearGradient>
<clipPath id="clip0_0_1">
<rect width="144" height="144" fill="white"/>
</clipPath>
</defs>
</svg>
